<?xml version="1.0" encoding="UTF-8"?>
<svg version="1.1" xmlns="http://www.w3.org/2000/svg" width="100" height="100">
<path d="M0 0 C5.02969049 0.0922879 7.95142253 0.8686208 11.75 4.375 C13.85972596 7.6747783 14.0120865 10.36589251 14.04052734 14.24169922 C14.05328705 15.42327606 14.06604675 16.60485291 14.07919312 17.82223511 C14.08141876 19.0951944 14.08364441 20.36815369 14.0859375 21.6796875 C14.0959227 23.6474968 14.0959227 23.6474968 14.10610962 25.65505981 C14.11807195 28.43071788 14.12179156 31.20625158 14.12060547 33.98193359 C14.12040238 37.52841138 14.14769685 41.07408687 14.18214989 44.62037468 C14.20981565 48.01515716 14.20856936 51.40979382 14.2109375 54.8046875 C14.22530853 56.07359833 14.23967957 57.34250916 14.25448608 58.64987183 C14.19664042 69.81692476 14.19664042 69.81692476 9.75 74.375 C6.91619658 76.07739313 4.83828171 76.62446399 1.5480957 76.61791992 C0.73077469 76.62099655 -0.08654633 76.62407318 -0.92863464 76.62724304 C-2.23819878 76.61646477 -2.23819878 76.61646477 -3.57421875 76.60546875 C-4.92722832 76.60478142 -4.92722832 76.60478142 -6.30757141 76.6040802 C-8.2096997 76.60106391 -10.11182566 76.59319625 -12.01391602 76.58081055 C-14.93709986 76.56250251 -17.85996781 76.56030129 -20.78320312 76.56054688 C-22.63021109 76.55563348 -24.4772169 76.54980593 -26.32421875 76.54296875 C-27.2033342 76.54185593 -28.08244965 76.5407431 -28.98820496 76.53959656 C-35.1339374 76.4910626 -35.1339374 76.4910626 -36.25 75.375 C-36.375 72.875 -36.375 72.875 -36.25 70.375 C-34.18600263 68.31100263 -29.792561 69.18951916 -26.9453125 69.1640625 C-25.23045921 69.13599355 -23.51561558 69.10732909 -21.80078125 69.078125 C-19.08610302 69.03683712 -16.37160511 68.99996707 -13.65673828 68.97363281 C-11.044213 68.94606751 -8.43251905 68.90019459 -5.8203125 68.8515625 C-5.0077298 68.84830963 -4.19514709 68.84505676 -3.35794067 68.84170532 C0.81906352 68.8541439 0.81906352 68.8541439 4.46128845 67.08253479 C6.68570305 64.13519927 6.23309525 60.54429448 6.26171875 56.98828125 C6.27966995 56.17127243 6.29762115 55.35426361 6.31611633 54.51249695 C6.37027788 51.90421706 6.40413308 49.29612075 6.4375 46.6875 C6.47066799 44.91859421 6.50515717 43.14971267 6.54101562 41.38085938 C6.62600746 37.04570527 6.69279035 32.71060616 6.75 28.375 C5.66338829 28.37833092 5.66338829 28.37833092 4.55482483 28.38172913 C-2.25843453 28.40173227 -9.07168953 28.41697425 -15.88497066 28.42681217 C-19.38808885 28.43203989 -22.89118285 28.4391355 -26.39428711 28.45043945 C-30.41780841 28.46334206 -34.44130414 28.46822912 -38.46484375 28.47265625 C-39.72836166 28.47781754 -40.99187958 28.48297882 -42.29368591 28.48829651 C-43.454814 28.48837204 -44.61594208 28.48844757 -45.81225586 28.48852539 C-47.3544706 28.49185631 -47.3544706 28.49185631 -48.92784119 28.49525452 C-51.25 28.375 -51.25 28.375 -52.25 27.375 C-52.375 24.875 -52.375 24.875 -52.25 22.375 C-51.25 21.375 -51.25 21.375 -48.92784119 21.25474548 C-47.89969803 21.25696609 -46.87155487 21.25918671 -45.81225586 21.26147461 C-44.07056374 21.26158791 -44.07056374 21.26158791 -42.29368591 21.26170349 C-40.39840904 21.26944542 -40.39840904 21.26944542 -38.46484375 21.27734375 C-36.53591026 21.27946617 -36.53591026 21.27946617 -34.56800842 21.28163147 C-31.14356557 21.28545582 -27.71916491 21.29528538 -24.29473877 21.30633545 C-20.80261811 21.31655136 -17.31049066 21.32112947 -13.81835938 21.32617188 C-6.96222222 21.33690773 -0.10611313 21.35398316 6.75 21.375 C6.66266424 19.76982903 6.55447776 18.16578338 6.4375 16.5625 C6.37949219 15.66917969 6.32148437 14.77585937 6.26171875 13.85546875 C5.67996961 11.03553973 5.02127195 10.0912032 2.75 8.375 C0.47838745 7.80176193 0.47838745 7.80176193 -1.9375 7.6875 C-2.74574219 7.62175781 -3.55398437 7.55601563 -4.38671875 7.48828125 C-5.00160156 7.45089844 -5.61648437 7.41351562 -6.25 7.375 C-6.875 5 -6.875 5 -7.25 2.375 C-4.68599223 -0.18900777 -3.56217985 0.04866366 0 0 Z " fill="#000000" transform="translate(76.25,11.625)"/>
<path d="M0 0 C0.87415558 -0.00630432 1.74831116 -0.01260864 2.6489563 -0.019104 C3.58448334 -0.01505554 4.52001038 -0.01100708 5.48388672 -0.00683594 C6.45010956 -0.00874939 7.4163324 -0.01066284 8.41183472 -0.01263428 C10.45099142 -0.0139937 12.49015686 -0.01031421 14.52929688 -0.00195312 C17.6588876 0.008773 20.78790732 -0.00186865 23.91748047 -0.01464844 C25.89795049 -0.01332726 27.87842016 -0.01076572 29.85888672 -0.00683594 C30.79846222 -0.0108844 31.73803772 -0.01493286 32.70608521 -0.019104 C34.00786209 -0.00964752 34.00786209 -0.00964752 35.3359375 0 C36.10108673 0.00159119 36.86623596 0.00318237 37.65457153 0.00482178 C39.53857422 0.25878906 39.53857422 0.25878906 41.53857422 2.25878906 C41.00285993 5.79450335 41.00285993 5.79450335 39.53857422 7.25878906 C36.54551313 7.38205296 33.57197247 7.44494609 30.57763672 7.46972656 C28.72606537 7.49779478 26.87450299 7.52645924 25.02294922 7.55566406 C22.09098556 7.59695933 19.15918923 7.63382844 16.22705078 7.66015625 C13.40605705 7.68771058 10.58583493 7.73358353 7.76513672 7.78222656 C6.44783066 7.78710587 6.44783066 7.78710587 5.10391235 7.79208374 C4.28651581 7.80865021 3.46911926 7.82521667 2.62695312 7.84228516 C1.90827057 7.85037201 1.18958801 7.85845886 0.4491272 7.86679077 C-2.10665396 8.39117395 -2.96257283 9.12984392 -4.46142578 11.25878906 C-4.9163514 13.71657695 -4.9163514 13.71657695 -4.84960938 16.50878906 C-4.85906586 17.58 -4.86852234 18.65121094 -4.87826538 19.75488281 C-4.86915634 21.48931641 -4.86915634 21.48931641 -4.85986328 23.25878906 C-4.86273346 24.44601563 -4.86560364 25.63324219 -4.86856079 26.85644531 C-4.87060355 29.36816891 -4.86505901 31.87990834 -4.85253906 34.39160156 C-4.83648938 38.24352478 -4.85238166 42.09439861 -4.87158203 45.94628906 C-4.86959964 48.38379139 -4.86575605 50.82129306 -4.85986328 53.25878906 C-4.86593597 54.41507813 -4.87200867 55.57136719 -4.87826538 56.76269531 C-4.8688089 57.83390625 -4.85935242 58.90511719 -4.84960938 60.00878906 C-4.84602921 61.42417969 -4.84602921 61.42417969 -4.84237671 62.86816406 C-4.3925684 65.69089769 -3.73742171 66.5794184 -1.46142578 68.25878906 C1.00834194 68.79794983 1.00834194 68.79794983 3.66357422 68.88378906 C8.45524089 69.17545573 8.45524089 69.17545573 9.53857422 70.25878906 C9.66357422 72.75878906 9.66357422 72.75878906 9.53857422 75.25878906 C7.68914674 77.10821654 4.83430991 76.51797666 2.35107422 76.57128906 C-3.34551742 76.52756522 -6.3651 76.24440333 -10.46142578 72.25878906 C-12.56175629 68.95092073 -12.72348229 66.27198411 -12.75195312 62.39208984 C-12.76471283 61.210513 -12.77747253 60.02893616 -12.7906189 58.81155396 C-12.79284454 57.53859467 -12.79507019 56.26563538 -12.79736328 54.95410156 C-12.80402008 53.6422287 -12.81067688 52.33035583 -12.8175354 50.97872925 C-12.82949773 48.20307119 -12.83321734 45.42753748 -12.83203125 42.65185547 C-12.83182816 39.10537768 -12.85912263 35.55970219 -12.89357567 32.01341438 C-12.92124143 28.61863191 -12.91999514 25.22399525 -12.92236328 21.82910156 C-12.93673431 20.56019073 -12.95110535 19.29127991 -12.96591187 17.98391724 C-12.9080662 6.81686431 -12.9080662 6.81686431 -8.46142578 2.25878906 C-5.54657461 0.49399082 -3.38881294 0.00703267 0 0 Z " fill="#000000" transform="translate(22.46142578125,11.7412109375)"/>
<path d="M0 0 C5.74301765 0.48876746 11.09576288 1.85369716 16 5 C18.36056708 8.61854954 18.31618629 11.73148504 18 16 C17.34 16.66 16.68 17.32 16 18 C12.19330655 17.66898318 9.34834394 16.76838944 6 15 C6.05800781 16.09699219 6.11601563 17.19398437 6.17578125 18.32421875 C6.22269688 19.77860314 6.26819511 21.23303374 6.3125 22.6875 C6.35439453 23.40873047 6.39628906 24.12996094 6.43945312 24.87304688 C6.53504347 29.05990398 6.36105732 30.54370552 3.66015625 33.95703125 C0.53330473 36.35841649 -1.06198767 37 -5 37 C-8.63655436 35.72720597 -11.26735971 34.73264029 -14 32 C-14.375 29.125 -14.375 29.125 -14 26 C-12.1329009 23.69724444 -10.64352259 22.32176129 -8 21 C-6.00039988 20.960008 -3.99952758 20.95653201 -2 21 C-2.02320313 19.73542969 -2.04640625 18.47085938 -2.0703125 17.16796875 C-2.08907126 15.5078184 -2.10727135 13.84766167 -2.125 12.1875 C-2.14175781 11.35412109 -2.15851562 10.52074219 -2.17578125 9.66210938 C-2.18222656 8.85966797 -2.18867187 8.05722656 -2.1953125 7.23046875 C-2.20578613 6.49207764 -2.21625977 5.75368652 -2.22705078 4.99291992 C-2 3 -2 3 0 0 Z " fill="#000000" transform="translate(49,41)"/>
<path d="M0 0 C0.598125 0.226875 1.19625 0.45375 1.8125 0.6875 C2.5 2.5 2.5 2.5 2.8125 4.6875 C1.625 6.5 1.625 6.5 -0.1875 7.6875 C-2.375 7.375 -2.375 7.375 -4.1875 6.6875 C-4.875 4.875 -4.875 4.875 -5.1875 2.6875 C-3.58493056 0.24147296 -2.95482043 -0.4221172 0 0 Z " fill="#000000" transform="translate(77.1875,22.3125)"/>
<path d="M0 0 C2.125 0.9375 2.125 0.9375 4 2 C3.67 3.65 3.34 5.3 3 7 C1.125 7.625 1.125 7.625 -1 8 C-1.66 7.34 -2.32 6.68 -3 6 C-2.75 3.4375 -2.75 3.4375 -2 1 C-1.34 0.67 -0.68 0.34 0 0 Z " fill="#000000" transform="translate(65,22)"/>
</svg>
